<svg width="247" height="247" viewBox="0 0 247 247" fill="none" xmlns="http://www.w3.org/2000/svg">
<circle cx="123.5" cy="123.5" r="121.5" fill="#00D68F" stroke="#004A45" stroke-width="4"/>
<path fill-rule="evenodd" clip-rule="evenodd" d="M124 58.3334C146.286 58.3334 164.417 76.4643 164.417 98.75C164.417 118.263 150.505 134.6 132.083 138.342V147.25C132.083 151.72 128.47 155.333 124 155.333C119.53 155.333 115.917 151.72 115.917 147.25V131.083C115.917 126.613 119.53 123 124 123C137.37 123 148.25 112.12 148.25 98.75C148.25 85.3802 137.37 74.5 124 74.5C110.63 74.5 99.7499 85.3802 99.7499 98.75C99.7499 103.22 96.1367 106.833 91.6666 106.833C87.1965 106.833 83.5833 103.22 83.5833 98.75C83.5833 76.4643 101.714 58.3334 124 58.3334ZM115.917 179.583C115.917 175.113 119.53 171.5 124 171.5C128.47 171.5 132.083 175.113 132.083 179.583C132.083 184.053 128.47 187.667 124 187.667C119.53 187.667 115.917 184.053 115.917 179.583Z" fill="#004A45"/>
</svg>
